<?xml version="1.0" encoding="UTF-8"?>
<svg id="Capa_1" data-name="Capa 1" xmlns="http://www.w3.org/2000/svg" viewBox="0 0 446.78 121.32">
  <defs>
    <style>
      .cls-1 {
        fill: #fff;
      }
    </style>
  </defs>
  <path class="cls-1" d="m297.99,84.91c-.22-.13-.3-.15-.33-.2-.65-1.33.35-3.27-1.1-4.14-1.27-.76-2.93-.19-4.42-.29-2.54-.18-3.43-1.05-3.46-3.61-.04-4.27-.05-8.54-.04-12.82,0-2.48.33-2.76,2.89-2.79,1.07-.01,2.14-.05,3.21,0,1.68.08,2.34-.72,2.23-2.33-.05-.71-.02-1.42-.02-2.14,0-1.14-.55-1.72-1.69-1.72-7.7,0-15.39.01-23.09.01-1.23,0-1.67.89-2.15,1.78-1.99,3.69-3.99,7.38-5.98,11.07-1.21,2.24-1.38,2.25-2.77.05-2.36-3.73-4.75-7.44-7.05-11.2-.75-1.22-1.65-1.77-3.12-1.75-5.84.06-11.69.07-17.53,0-1.75-.02-2.55.63-2.36,2.38.18,1.6-.79,3.79,2.22,3.88,2.6.08,3.14.66,3.18,3.19.07,4.41.07,8.83.05,13.24,0,1.05.01,2.41-1.4,2.5-1.43.09-3.18,1.37-4.27-.72-.36-.68-1.05-.76-1.68-.68-1.67.21-2.58-.69-3.47-1.94-5.25-7.44-10.56-14.84-15.84-22.27-.51-.71-.97-1.5-1.88-1.61-2.39-.29-1.02-1.13-.3-1.84,3.52-3.43,7.05-6.85,10.57-10.28,13.63-13.25,27.27-26.5,40.87-39.79,1.27-1.25,2.05-1.19,3.31.03,17.1,16.63,34.26,33.21,51.39,49.81.47.46,1.43.81,1.07,1.62-.29.65-1.15.34-1.76.34-4.51.03-4.46-.47-4.3,4.42.02.71.02,1.42.03,2.14.05,3.44.04,3.46,3.34,3.94,1.22.18,1.5.62.79,1.66-2.89,4.23-5.79,8.45-8.63,12.71-.86,1.29-2.09.99-3.26,1.01-3.14.04-3.55.47-3.17,3.64.1.84.3,1.68-.05,2.67Z"/>
  <path class="cls-1" d="m246.17,70.19c2.57,4.41,5.25,8.76,7.67,13.26,1.12,2.08,2.42,2.98,4.85,2.88,7.02-.3,5.16,1.1,8.62-5.31,1.79-3.32,3.55-6.66,5.34-9.98.29-.54.66-1.03,1.51-1.46,0,3.02.04,6.04-.02,9.06-.03,1.24-.93,1.71-2.07,1.63-1.64-.11-2.16.72-2.04,2.21.04.5.05,1,0,1.49-.21,1.8.65,2.35,2.37,2.33,7.06-.06,14.12-.03,21.18-.04.5,0,1-.02,1.5.03.53.06,1.28-.27,1.54.37.26.65-.48.95-.86,1.33-7.89,7.83-15.78,15.65-23.69,23.47-3.04,3-6.14,5.95-9.12,9.01-1.01,1.04-1.67,1.18-2.77.11-10.66-10.4-21.36-20.75-32.04-31.12-.39-.38-1.07-.73-.87-1.35.22-.68.97-.41,1.51-.45.92-.07,1.89.05,2.42-.98.4-.78,1.13-.41,1.72-.42,4.49-.01,8.98,0,13.48,0,1.16,0,2.55.03,2.36-1.65-.18-1.54,1.15-3.8-1.66-4.34-.87-.17-1.5-.52-1.51-1.48-.02-2.82,0-5.65,0-8.47.21-.04.41-.09.62-.13Z"/>
  <path class="cls-1" d="m43.17,68.07c-.94.28-1.2.96-1.54,1.58-2.57,4.6-5.19,9.16-7.71,13.78-.8,1.46-1.81,1.91-3.49,2.18-4.91.78-7.78-1.09-9.63-5.62-1.39-3.4-3.46-6.53-5.26-9.76-.25-.45-.35-1.26-1.11-1.1-.69.15-.63.87-.65,1.42-.09,2.56-.16,5.13-.24,7.69-.04,1.21.32,2.05,1.71,2.24,2.33.32,1.2,2.15,1.36,3.38.17,1.34-.63,1.68-1.84,1.67-4.35-.04-8.7-.04-13.05,0-1.3,0-1.9-.56-1.66-1.81.23-1.21-.74-3.03,1.66-3.23,3.58-.3,3.8-.54,3.95-4.07.17-4.06.29-8.11.36-12.17.05-2.8-.79-3.79-3.59-3.91-2.51-.11-1.54-1.87-1.69-3.09-.16-1.29.11-2.15,1.78-2.13,5.99.07,11.98.06,17.97,0,1.26-.01,1.94.55,2.53,1.55,2.37,3.97,4.77,7.92,7.18,11.87,1.19,1.94,1.45,1.94,2.61-.07,2.24-3.88,4.49-7.76,6.64-11.7.68-1.24,1.52-1.66,2.89-1.65,7.06.06,14.12.09,21.18-.01,1.83-.03,2.18.74,2.06,2.29-.11,1.44.39,3.18-2.11,2.92-1.13-.12-2.28,0-3.42-.02-1.95-.02-2.9.99-2.93,2.88-.08,4.63-.18,9.26-.18,13.89,0,2.41.96,3.29,3.41,3.41.71.03,1.43.02,2.14.03,3.03.02,3.06.13,2.97,3.13-.05,1.53-.72,1.93-2.12,1.92-7.56-.04-15.12-.04-22.68,0-1.35,0-2.1-.44-1.87-1.84.2-1.21-.78-3.18,1.65-3.17,1.97,0,2.69-1.03,2.71-2.77.03-3.18,0-6.37,0-9.68Z"/>
  <path class="cls-1" d="m159.44,67.4c3.42,0,6.84.04,10.26-.02,1.47-.02,1.88.56,2,2.01.86,10-5.55,13.39-11.99,15.11-9.86,2.64-19.87,2.65-29.68-.61-4.69-1.56-8.77-4.17-10.49-9.02-2.93-8.25-.35-14.9,7.39-18.79,7.19-3.61,14.97-4.33,22.9-3.62,3.26.29,6.53.56,9.68,1.55.43.14,1,.16,1.06-.35.25-1.98,1.73-1.49,2.93-1.51,2.14-.04,4.28.03,6.41-.02,1.2-.03,1.9.31,1.87,1.66-.06,2.99-.06,5.98-.07,8.97,0,1.06-.51,1.59-1.55,1.61-1.21.02-2.43-.03-3.63.05-1.88.12-3.31-.19-4.41-2.09-1.1-1.91-3.29-2.68-5.39-3.19-4.8-1.15-9.58-2.15-14.32.48-6.07,3.38-8.17,11.07-4.17,15.97,2.07,2.53,4.93,3.97,8.03,4.55,3,.57,6.11.56,9.05-.66,2.59-1.07,3.56-3.41,2.54-5.92-.58-1.41-1.45-1.54-2.45-.61-2.29,2.13-5,.83-7.53,1.02-.46.04-.71-.41-.78-.87-.02-.14-.02-.28-.03-.43-.62-5-.31-5.34,4.68-5.3,2.57.02,5.13,0,7.7,0,0,0,0,.01,0,.02Z"/>
  <path class="cls-1" d="m404.25,55.07c3.92,0,7.84.07,11.76-.03,2.45-.06,1.73,1.66,1.87,2.94.15,1.4-.14,2.45-1.9,2.22-2.56-.35-4.65.61-6.73,2.05-2.86,1.98-5.9,3.71-8.91,5.47-1.58.92-1.61,1.67-.13,2.75,4.08,2.98,8.14,5.99,12.14,9.08,1.36,1.05,2.84.89,4.28.79,2.38-.17,1.91,1.43,1.99,2.8.08,1.46-.08,2.41-2,2.34-5.05-.19-10.11-.22-15.17-.26-1.59-.01-2.84-.59-4.06-1.58-3.16-2.55-6.43-4.95-9.58-7.51-1.21-.98-2.18-.99-3.42-.1-1.38.99-2.91,1.79-4.34,2.71-.44.28-1.13.56-.82,1.28.23.54.84.44,1.33.44,2.42-.02,4.84-.02,7.27-.09,2.39-.07,1.51,1.72,1.65,2.87.14,1.15.23,2.24-1.6,2.23-7.91-.07-15.82-.08-23.73,0-2.46.02-1.72-1.64-1.86-2.93-.16-1.43.12-2.43,1.89-2.16,1.9.29,3.4-.46,4.89-1.6,2.99-2.3,6.06-4.49,9.15-6.65,1.4-.98,1.36-1.7.02-2.72-3.28-2.5-6.53-5.05-9.71-7.68-1.41-1.17-2.89-1.7-4.69-1.53-2.28.22-1.71-1.54-1.82-2.77-.11-1.31,0-2.39,1.83-2.37,4.63.07,9.26.03,13.9,0,.99,0,1.77.39,2.53.95,3.57,2.59,7.2,5.11,10.73,7.76,1.27.95,2.3,1.2,3.58.09.8-.7,1.73-1.24,2.64-1.8.5-.31,1.11-.6.99-1.24-.17-.87-1-.63-1.6-.64-1.5-.02-2.99,0-4.49.05-2.34.06-1.55-1.72-1.68-2.9-.13-1.18-.13-2.29,1.64-2.27,4.06.07,8.12.02,12.18.02Z"/>
  <path class="cls-1" d="m213.92,85.48c-4.06,0-8.13-.08-12.19.03-1.88.05-1.89-1.03-1.8-2.31.09-1.24-.52-2.86,1.79-2.8.89.02,2.58.61,2.41-1.04-.14-1.35-.79-2.97-2.78-2.97-4.28,0-8.55.02-12.83,0-2.05,0-2.53,1.63-3.13,3.02-.38.89.5,1.03,1.15,1.04,1.64.03,3.28.05,4.92-.01,1.81-.06,1.68,1.18,1.58,2.32-.09,1.14.54,2.74-1.64,2.73-6.7-.03-13.4-.04-20.1,0-1.75.01-1.55-1.15-1.44-2.17.12-1.1-.69-3.07,1.46-2.81,3,.37,4.47-1.2,5.95-3.41,3.02-4.48,6.27-8.81,9.43-13.2.55-.77,1.16-1.56.72-2.53-.49-1.08-1.56-1.1-2.58-1.11-.36,0-.71,0-1.07,0-2.97-.02-2.96-.09-2.95-2.96,0-1.64.55-2.24,2.24-2.22,7.13.07,14.25.07,21.38,0,1.45-.01,2.36.46,3.18,1.63,5.07,7.22,10.21,14.39,15.29,21.61.9,1.27,1.75,2.24,3.57,2.18,2.18-.08,1.23,1.8,1.37,2.88.15,1.08.13,2.14-1.54,2.12-4.13-.06-8.27-.02-12.4-.02Zm-19.28-13.7q5.05,0,2.67-4.16c-2.16-3.78-1.94-3.7-4.53.11-.75,1.1-2.48,2.18-1.74,3.54.66,1.21,2.49.25,3.6.51Z"/>
  <path class="cls-1" d="m345.44,85.58c-3.92,0-7.84-.05-11.76.02-1.64.03-2.13-.68-2.06-2.18.06-1.34-.29-2.8,1.88-2.79.85,0,2.45.38,2.28-1.09-.15-1.29-.77-2.92-2.57-2.95-4.42-.07-8.84-.06-13.26-.03-1.89.01-2.49,1.59-2.93,2.96-.36,1.1.76,1.15,1.53,1.17,1.49.04,2.99,0,4.49.02,2.22.02,1.58,1.73,1.71,2.96.15,1.36-.46,1.92-1.85,1.91-6.56-.04-13.12-.05-19.68,0-1.91.02-1.75-1.22-1.75-2.44,0-1.21-.19-2.8,1.66-2.5,2.99.49,4.29-1.27,5.7-3.4,2.95-4.45,6.11-8.76,9.16-13.14.55-.79,1.38-1.6.7-2.69-.6-.96-1.64-1.03-2.66-1.03-.29,0-.57,0-.86,0-2.58-.03-3.88-2.17-2.78-4.5.32-.67.86-.66,1.42-.66,7.49,0,14.97.02,22.46-.02,1.39,0,2,.89,2.67,1.81,5.15,7.08,10.3,14.16,15.43,21.25.98,1.35,1.87,2.51,3.88,2.46,2.11-.05,1.17,1.83,1.35,2.93.18,1.12-.13,1.93-1.55,1.92-4.21-.04-8.41-.01-12.62,0Zm-19.22-13.67c1.36-.32,3.23.69,3.98-.66.67-1.2-.88-2.39-1.53-3.52-2-3.51-2.07-3.51-4.41.12-.71,1.1-2.34,2.17-1.76,3.4.62,1.34,2.47.31,3.73.66Z"/>
  <path class="cls-1" d="m92.1,85.51c-7.27,0-14.55-.02-21.82.02-1.44,0-2.42-.22-2.17-1.95.2-1.36-.75-3.31,2.03-3.22,2.26.07,3.21-.99,3.26-3.28.09-4.63.09-9.26.16-13.89.03-2.02-1.13-2.9-2.93-2.88-2.8.03-1.7-1.98-1.89-3.32-.25-1.81.88-1.86,2.24-1.86,14.55.03,29.09.05,43.64-.02,1.82,0,2.37.57,2.23,2.32-.18,2.2-.17,4.41-.21,6.62-.02,1.06-.52,1.55-1.59,1.52-1.21-.03-2.43-.03-3.64.02-1.88.08-3.49.25-3.9-2.48-.27-1.8-2.02-2.84-4.06-2.83-4.78,0-9.56.05-14.33-.01-1.59-.02-2.09.63-2.15,2.15-.21,5.75-.24,5.75,5.43,5.75,4.92,0,9.84.02,14.76-.01,1.35,0,2.4.07,2.32,1.89-.07,1.66-.2,2.83-2.43,2.78-5.77-.13-11.55.01-17.32-.08-1.99-.03-2.8.57-2.76,2.68.11,5.67-.58,4.8,4.91,4.86,3.42.03,6.85.04,10.27,0,3.19-.04,4.65-1.05,5.75-4.07.3-.83.73-1.14,1.52-1.16.14,0,.29-.01.43-.01,8.05.16,6.5-1.36,6.45,6.33-.03,4.75.54,4.14-4.32,4.17-6.63.03-13.26,0-19.89,0Z"/>
  <path class="cls-1" d="m434.38,85.45c-3.42,0-6.84-.1-10.25.04-2.05.08-2.11-1.06-2.1-2.55.02-1.44-.28-2.77,2.02-2.79,3.55-.03,4.06-.73,4.02-4.2-.05-3.63-.08-7.26-.17-10.88-.09-3.43-1.22-4.67-4.58-4.83-2.64-.13-1.72-2.1-1.94-3.45-.26-1.54.74-1.72,1.96-1.72,6.84.02,13.67.08,20.51-.02,2.64-.04,1.95,1.77,2.16,3.2.26,1.76-.71,1.96-2.13,1.99-2.88.07-3.93,1.22-3.91,4.12.02,3.77.08,7.54.16,11.31.06,2.87,1.58,4.68,4.42,4.64,2.81-.03,2.06,1.86,2.23,3.34.22,1.89-1.06,1.81-2.33,1.8-3.35-.02-6.69,0-10.04,0Z"/>
  <path class="cls-1" d="m397.83,110.25c-1.55,1.18-1.42,2.76-1.86,4.03-.43,1.25-1.04,1.72-2.29,1.66-1.14-.06-2.28-.06-3.41.02-1.76.12-2.95-.32-2.87-2.39.06-1.53-1.11-1.36-2.1-1.39-1.04-.03-1.81.21-1.83,1.5-.02.97.07,2.02-1.37,2.25-2.44.4-3-.17-2.61-2.64.83-5.26,1.64-10.53,2.35-15.81.2-1.45.81-1.85,2.2-1.86,4.32-.03,4.4-.1,5.21,4.11.75,3.9,1.27,7.85,1.91,11.78.09.53-.12,1.33.58,1.44.87.14.77-.8,1.08-1.32,2.67-4.49,2.05-8.85-.31-13.24-.41-.76-1.57-2.08,0-2.6,1.24-.41,3.09-.79,3.49,1.5.15.83.43,1.65.68,2.46.13.42.34.89.8.9.57.02.52-.55.62-.95.23-.89.53-1.77.68-2.68.16-.94.65-1.29,1.57-1.38,2.57-.25,3.16.28,2,2.55-2.4,4.72-2.54,9.31.03,13.96.2.37.29.8.38,1.22.19.85,1.38,1.98-.22,2.43-1.31.37-2.92.56-3.49-1.38-.38-1.29-.77-2.57-1.24-4.17Zm-12.12-10.28c-1.11,2.28-1.41,4.64-1.48,7.04-.02.79.15,1.41,1.14,1.43,1.11.02,1.32-.67,1.22-1.54-.27-2.31-.58-4.62-.88-6.93Z"/>
  <path class="cls-1" d="m373.86,102.87c-.64,4.02-1.21,7.66-1.8,11.3-.11.65.11,1.63-.95,1.6-.9-.02-1.03-.91-1.13-1.59-.57-3.71-.9-7.47-2.38-11.09,0,3.61-.04,7.22.02,10.82.03,1.59-.61,2.1-2.17,2.06-1.52-.04-1.72-.84-1.72-2.06.03-5.41.04-10.82-.01-16.23-.01-1.43.39-2.02,1.93-2.05,3.67-.06,3.65-.13,4.16,3.59.24,1.75.59,3.48.92,5.38,1.03-.53,1.03-1.42,1.17-2.19.23-1.26.3-2.54.55-3.8.56-2.87,2.09-3.73,4.89-2.92.73.21.85.69.86,1.27.02,5.84,0,11.67.03,17.51,0,1.3-.76,1.48-1.81,1.48-1.11,0-1.97-.15-1.95-1.58.04-2.7.02-5.41,0-8.11,0-.98.11-1.99-.59-3.38Z"/>
  <path class="cls-1" d="m415.03,103.34c0,3.4-.02,6.81,0,10.21,0,1.39,0,2.49-1.99,2.43-1.8-.06-1.88-1-1.87-2.34.03-5.27.01-10.54.02-15.8,0-1.07-.16-2.38,1.51-2.15,1.55.21,3.82-1.13,4.3,1.72.41,2.43.74,4.87,1.12,7.41.98-.53.92-1.31,1.04-1.97.26-1.4.38-2.82.63-4.22.52-2.92,2-3.76,4.91-2.96.85.24.9.81.9,1.46,0,5.77-.01,11.53.01,17.3,0,1.29-.71,1.5-1.78,1.51-1.14,0-1.95-.17-1.93-1.59.04-2.85.02-5.69,0-8.54,0-.98.14-1.99-.56-3.3-.64,4-1.21,7.64-1.81,11.27-.13.78.17,2.02-1.08,1.94-1.05-.07-.99-1.23-1.11-2.06-.5-3.44-.86-6.9-2.31-10.32Z"/>
  <path class="cls-1" d="m438.8,105.79c0,1.49,0,2.98,0,4.47,0,2.56-1.44,4.9-3.38,5.54-2.49.81-5.61-.27-7.15-2.44-.4-.57-.45-1.18-.45-1.82,0-3.83-.03-7.67,0-11.5.01-1.55,2.04-3.97,3.58-4.31,4-.87,8.04,1.42,7.45,5.81-.19,1.39-.03,2.84-.03,4.26Zm-3.96.04c0-1.7-.02-3.4,0-5.1.01-.99-.45-1.39-1.42-1.39-1,0-1.63.28-1.62,1.43.02,3.33.01,6.65,0,9.98,0,1.07.5,1.53,1.55,1.54,1.11.01,1.5-.55,1.49-1.58-.02-1.63,0-3.26,0-4.88Z"/>
  <path class="cls-1" d="m355.17,105.93c0,1.42,0,2.84,0,4.26,0,2.6-1.53,5.04-3.53,5.64-2.52.75-5.4-.25-6.97-2.41-.45-.61-.55-1.29-.55-2.01,0-3.69.07-7.39-.01-11.08-.05-2.34,1.55-3.65,3.2-4.35,1.66-.7,3.75-.89,5.47.44,1.65,1.27,2.77,2.74,2.44,5.04-.21,1.46-.04,2.98-.04,4.47Zm-6.96-.26c0,1.7,0,3.41,0,5.11,0,.88.21,1.53,1.3,1.51.95-.02,1.73-.2,1.73-1.37.01-3.4.01-6.81.01-10.21,0-1.16-.75-1.36-1.71-1.39-1.06-.03-1.35.53-1.34,1.45.02,1.63,0,3.26,0,4.89Z"/>
  <path class="cls-1" d="m338.02,103.75c0,2.06.05,4.12-.02,6.17-.05,1.52.52,2.28,2.11,2.15,1.46-.12,2.46.16,2.42,2.02-.05,1.98-1.29,1.87-2.61,1.83-.5-.01-.99,0-1.49,0q-4.68,0-4.68-4.78c0-4.54.06-9.09-.02-13.63-.03-1.56.63-1.92,2.03-1.9,1.41.01,2.35.24,2.28,1.96-.08,2.06-.02,4.12-.01,6.17Z"/>
  <path class="cls-1" d="m408.84,105.79c0,2.77-.04,5.55.02,8.32.03,1.4-.57,1.86-1.92,1.85-1.34-.01-2.18-.27-2.16-1.86.04-5.55.04-11.1,0-16.65-.02-1.63.86-1.81,2.18-1.82,1.34-.01,1.95.41,1.91,1.83-.07,2.77-.02,5.55-.02,8.32Z"/>
  <path class="cls-1" d="m442.58,99.58c0-.57.03-1.14,0-1.7-.1-1.38.13-2.29,1.9-2.28,1.66,0,2.22.58,2.25,2.22.06,3.65-.53,7.2-1.14,10.77-.1.6.03,1.39-.93,1.38-.83,0-1.08-.65-1.12-1.31-.15-3.05-1.11-6.01-.95-9.08Z"/>
  <path class="cls-1" d="m444.61,115.91c-1.4.2-2.04-.29-2.08-1.83-.04-1.66.66-2.08,2.15-2.03,1.23.04,2.04.27,2.03,1.76-.01,1.48-.44,2.35-2.1,2.1Z"/>
</svg>